<mxfile host="app.diagrams.net" modified="2024-05-24T02:49:43.978Z" agent="Mozilla/5.0 (Windows NT 10.0; Win64; x64) AppleWebKit/537.36 (KHTML, like Gecko) Chrome/109.0.0.0 Safari/537.36" version="24.4.7" etag="ijIB6rBYithqmgnt3JZH" type="github">
  <diagram name="Halaman-1" id="2yRJhsfLavAQtzxSa_Id">
    <mxGraphModel>
      <root>
        <mxCell id="0" />
        <mxCell id="1" parent="0" />
      </root>
    </mxGraphModel>
  </diagram>
</mxfile>
